<?xml version="1.0" standalone="no"?>
<!DOCTYPE svg PUBLIC "-//W3C//DTD SVG 20010904//EN"
 "http://www.w3.org/TR/2001/REC-SVG-20010904/DTD/svg10.dtd">
<svg version="1.0" xmlns="http://www.w3.org/2000/svg"
 width="256.000000pt" height="256.000000pt" viewBox="0 0 256.000000 256.000000"
 preserveAspectRatio="xMidYMid meet">
<metadata>
Created by potrace 1.16, written by Peter Selinger 2001-2019
</metadata>
<g transform="translate(0.000000,256.000000) scale(0.100000,-0.100000)"
fill="#000000" stroke="none">
<path d="M1215 2194 c-141 -18 -241 -45 -335 -92 -248 -123 -425 -346 -491
-617 -23 -99 -25 -288 -4 -390 75 -357 350 -633 709 -711 93 -21 280 -21 372
0 267 58 493 229 623 469 70 130 105 275 104 432 -2 180 -47 337 -139 482
-134 210 -344 357 -584 407 -72 15 -208 26 -255 20z m233 -60 c268 -55 492
-226 615 -471 99 -194 113 -472 36 -678 -18 -49 -23 -54 -64 -64 -24 -6 -55
-11 -69 -11 -38 0 -32 -13 19 -38 47 -23 50 -28 36 -50 -11 -18 -102 27 -153
75 l-37 36 -39 -32 c-80 -63 -194 -101 -306 -101 -45 -1 -49 -2 -33 -14 27
-21 223 -83 297 -95 36 -6 84 -11 108 -11 49 0 53 -10 16 -39 -21 -17 -41 -21
-98 -21 -108 0 -201 17 -259 46 -64 33 -171 139 -222 222 l-38 62 -48 -74
c-108 -164 -216 -207 -444 -177 -136 18 -158 26 -188 68 -15 20 -25 38 -24 39
1 1 76 -11 167 -27 179 -31 240 -29 345 8 l50 18 -75 6 c-51 4 -91 14 -125 32
-53 27 -125 97 -164 160 l-23 38 -18 -28 c-26 -43 -73 -79 -135 -102 -31 -12
-60 -21 -66 -21 -13 0 -45 76 -72 170 -32 110 -31 332 1 445 93 323 345 559
672 629 89 19 245 19 338 0z m-88 -1486 c89 -51 188 -80 300 -87 l105 -6 -49
-29 c-48 -28 -51 -29 -165 -24 -128 6 -164 17 -243 73 l-49 36 -31 -26 c-17
-14 -47 -34 -67 -45 -40 -20 -172 -50 -222 -50 -27 0 -129 47 -129 60 0 3 57
5 128 5 126 0 128 0 190 34 35 19 82 51 105 72 37 33 44 36 62 25 11 -7 40
-24 65 -38z"/>
<path d="M1272 1823 c-7 -26 -38 -100 -68 -163 -71 -152 -71 -212 2 -269 61
-48 165 -27 200 41 29 57 21 106 -39 235 -30 65 -60 137 -66 161 -7 23 -13 42
-14 42 -2 0 -9 -21 -15 -47z"/>
<path d="M1450 960 c-13 -10 -42 -24 -65 -31 -22 -7 -44 -15 -48 -19 -4 -4 22
-17 58 -28 74 -25 176 -28 240 -8 l40 13 -45 7 c-63 11 -103 29 -131 59 -24
26 -24 26 -49 7z"/>
</g>
</svg>
